# MagicaVoxel @ Ephtracy

# group
o 

# material
mtllib en_ogre_chain-0.mtl
usemtl palette

# normals
vn -1 0 0
vn 1 0 0
vn 0 0 1
vn 0 0 -1
vn 0 -1 0
vn 0 1 0

# texcoords
vt 0.00195313 0.5
vt 0.0214844 0.5
vt 0.0332031 0.5
vt 0.0449219 0.5
vt 0.0527344 0.5
vt 0.0566406 0.5
vt 0.126953 0.5
vt 0.306641 0.5

# verts
v -0.6 0.1 0.3
v -0.6 0.1 -0.4
v -0.6 0.7 0.3
v -0.6 0.7 -0.4
v -0.5 0.1 0.4
v -0.5 0.1 0.3
v -0.5 0.1 -0.4
v -0.5 0.1 -0.5
v -0.5 0.7 0.4
v -0.5 0.7 0.3
v -0.5 0.7 -0.4
v -0.5 0.7 -0.5
v -0.5 0.8 0.3
v -0.5 0.8 -0.4
v -0.4 0 0.4
v -0.4 0 -0.4
v -0.4 0.1 0.4
v -0.4 0.1 -0.4
v -0.4 0.1 -0.5
v -0.4 0.1 -0.6
v -0.4 0.7 0.4
v -0.4 0.7 0.3
v -0.4 0.7 -0.4
v -0.4 0.7 -0.5
v -0.4 0.7 -0.6
v -0.4 0.8 0.4
v -0.4 0.8 0.3
v -0.4 0.8 -0.4
v -0.4 0.8 -0.5
v -0.4 0.9 0.3
v -0.4 0.9 -0.4
v -0.3 0 -0.4
v -0.3 0 -0.6
v -0.3 0.1 -0.4
v -0.3 0.1 -0.6
v -0.3 0.2 0.6
v -0.3 0.2 0.5
v -0.3 0.3 0.6
v -0.3 0.3 0.5
v -0.3 0.7 -0.5
v -0.3 0.7 -0.6
v -0.3 0.8 0.4
v -0.3 0.8 0.3
v -0.3 0.8 -0.4
v -0.3 0.8 -0.5
v -0.3 0.8 -0.6
v -0.3 0.9 0.4
v -0.3 0.9 0.3
v -0.3 0.9 -0.4
v -0.3 0.9 -0.5
v -0.2 0.1 0.5
v -0.2 0.1 0.4
v -0.2 0.2 0.5
v -0.2 0.2 0.4
v 0.1 0.1 0.5
v 0.1 0.1 0.4
v 0.1 0.2 0.5
v 0.1 0.2 0.4
v 0.2 0.2 0.6
v 0.2 0.2 0.5
v 0.2 0.3 0.6
v 0.2 0.3 0.5
v -0.2 0.2 0.6
v -0.2 0.2 0.5
v -0.2 0.3 0.6
v -0.2 0.3 0.5
v -0.1 0.1 0.5
v -0.1 0.1 0.4
v -0.1 0.2 0.5
v -0.1 0.2 0.4
v 0.2 0.1 0.5
v 0.2 0.1 0.4
v 0.2 0.2 0.5
v 0.2 0.2 0.4
v 0.3 0 -0.4
v 0.3 0 -0.6
v 0.3 0.1 -0.4
v 0.3 0.1 -0.6
v 0.3 0.2 0.6
v 0.3 0.2 0.5
v 0.3 0.3 0.6
v 0.3 0.3 0.5
v 0.3 0.7 -0.5
v 0.3 0.7 -0.6
v 0.3 0.8 0.4
v 0.3 0.8 0.3
v 0.3 0.8 -0.4
v 0.3 0.8 -0.5
v 0.3 0.8 -0.6
v 0.3 0.9 0.4
v 0.3 0.9 0.3
v 0.3 0.9 -0.4
v 0.3 0.9 -0.5
v 0.4 0 0.4
v 0.4 0 -0.4
v 0.4 0.1 0.4
v 0.4 0.1 -0.4
v 0.4 0.1 -0.5
v 0.4 0.1 -0.6
v 0.4 0.7 0.4
v 0.4 0.7 0.3
v 0.4 0.7 -0.4
v 0.4 0.7 -0.5
v 0.4 0.7 -0.6
v 0.4 0.8 0.4
v 0.4 0.8 0.3
v 0.4 0.8 -0.4
v 0.4 0.8 -0.5
v 0.4 0.9 0.3
v 0.4 0.9 -0.4
v 0.5 0.1 0.4
v 0.5 0.1 0.3
v 0.5 0.1 -0.4
v 0.5 0.1 -0.5
v 0.5 0.7 0.4
v 0.5 0.7 0.3
v 0.5 0.7 -0.4
v 0.5 0.7 -0.5
v 0.5 0.8 0.3
v 0.5 0.8 -0.4
v 0.6 0.1 0.3
v 0.6 0.1 -0.4
v 0.6 0.7 0.3
v 0.6 0.7 -0.4
v -0.3 0.2 0.6
v -0.3 0.3 0.6
v -0.2 0.2 0.6
v -0.2 0.3 0.6
v 0.2 0.2 0.6
v 0.2 0.3 0.6
v 0.3 0.2 0.6
v 0.3 0.3 0.6
v -0.2 0.1 0.5
v -0.2 0.2 0.5
v -0.1 0.1 0.5
v -0.1 0.2 0.5
v 0.1 0.1 0.5
v 0.1 0.2 0.5
v 0.2 0.1 0.5
v 0.2 0.2 0.5
v -0.5 0.1 0.4
v -0.5 0.7 0.4
v -0.4 0 0.4
v -0.4 0.1 0.4
v -0.4 0.4 0.4
v -0.4 0.6 0.4
v -0.4 0.7 0.4
v -0.4 0.8 0.4
v -0.3 0 0.4
v -0.3 0.1 0.4
v -0.3 0.4 0.4
v -0.3 0.6 0.4
v -0.3 0.7 0.4
v -0.3 0.8 0.4
v -0.3 0.9 0.4
v -0.2 0.1 0.4
v -0.2 0.2 0.4
v -0.2 0.4 0.4
v -0.2 0.5 0.4
v -0.2 0.6 0.4
v -0.2 0.7 0.4
v -0.1 0.1 0.4
v -0.1 0.2 0.4
v -0.1 0.5 0.4
v -0.1 0.6 0.4
v 0.1 0.1 0.4
v 0.1 0.2 0.4
v 0.1 0.5 0.4
v 0.1 0.6 0.4
v 0.2 0.1 0.4
v 0.2 0.2 0.4
v 0.2 0.4 0.4
v 0.2 0.5 0.4
v 0.2 0.6 0.4
v 0.2 0.7 0.4
v 0.3 0 0.4
v 0.3 0.1 0.4
v 0.3 0.4 0.4
v 0.3 0.6 0.4
v 0.3 0.7 0.4
v 0.3 0.8 0.4
v 0.3 0.9 0.4
v 0.4 0 0.4
v 0.4 0.1 0.4
v 0.4 0.4 0.4
v 0.4 0.6 0.4
v 0.4 0.7 0.4
v 0.4 0.8 0.4
v 0.5 0.1 0.4
v 0.5 0.7 0.4
v -0.6 0.1 0.3
v -0.6 0.7 0.3
v -0.5 0.1 0.3
v -0.5 0.7 0.3
v -0.5 0.8 0.3
v -0.4 0.7 0.3
v -0.4 0.8 0.3
v -0.4 0.9 0.3
v -0.3 0.8 0.3
v -0.3 0.9 0.3
v 0.3 0.8 0.3
v 0.3 0.9 0.3
v 0.4 0.7 0.3
v 0.4 0.8 0.3
v 0.4 0.9 0.3
v 0.5 0.1 0.3
v 0.5 0.7 0.3
v 0.5 0.8 0.3
v 0.6 0.1 0.3
v 0.6 0.7 0.3
v -0.3 0.2 0.5
v -0.3 0.3 0.5
v -0.2 0.2 0.5
v -0.2 0.3 0.5
v 0.2 0.2 0.5
v 0.2 0.3 0.5
v 0.3 0.2 0.5
v 0.3 0.3 0.5
v -0.6 0.1 -0.4
v -0.6 0.7 -0.4
v -0.5 0.1 -0.4
v -0.5 0.7 -0.4
v -0.5 0.8 -0.4
v -0.4 0 -0.4
v -0.4 0.1 -0.4
v -0.4 0.7 -0.4
v -0.4 0.8 -0.4
v -0.4 0.9 -0.4
v -0.3 0 -0.4
v -0.3 0.1 -0.4
v -0.3 0.8 -0.4
v -0.3 0.9 -0.4
v 0.3 0 -0.4
v 0.3 0.1 -0.4
v 0.3 0.8 -0.4
v 0.3 0.9 -0.4
v 0.4 0 -0.4
v 0.4 0.1 -0.4
v 0.4 0.7 -0.4
v 0.4 0.8 -0.4
v 0.4 0.9 -0.4
v 0.5 0.1 -0.4
v 0.5 0.7 -0.4
v 0.5 0.8 -0.4
v 0.6 0.1 -0.4
v 0.6 0.7 -0.4
v -0.5 0.1 -0.5
v -0.5 0.7 -0.5
v -0.4 0.1 -0.5
v -0.4 0.7 -0.5
v -0.4 0.8 -0.5
v -0.3 0.7 -0.5
v -0.3 0.8 -0.5
v -0.3 0.9 -0.5
v 0.3 0.7 -0.5
v 0.3 0.8 -0.5
v 0.3 0.9 -0.5
v 0.4 0.1 -0.5
v 0.4 0.7 -0.5
v 0.4 0.8 -0.5
v 0.5 0.1 -0.5
v 0.5 0.7 -0.5
v -0.4 0.1 -0.6
v -0.4 0.7 -0.6
v -0.3 0 -0.6
v -0.3 0.1 -0.6
v -0.3 0.7 -0.6
v -0.3 0.8 -0.6
v 0.3 0 -0.6
v 0.3 0.1 -0.6
v 0.3 0.7 -0.6
v 0.3 0.8 -0.6
v 0.4 0.1 -0.6
v 0.4 0.7 -0.6
v -0.4 0 0.4
v -0.3 0 0.4
v 0.3 0 0.4
v 0.4 0 0.4
v -0.4 0 -0.4
v -0.3 0 -0.4
v 0.3 0 -0.4
v 0.4 0 -0.4
v -0.3 0 -0.6
v 0.3 0 -0.6
v -0.2 0.1 0.5
v -0.1 0.1 0.5
v 0.1 0.1 0.5
v 0.2 0.1 0.5
v -0.5 0.1 0.4
v -0.4 0.1 0.4
v -0.2 0.1 0.4
v -0.1 0.1 0.4
v 0.1 0.1 0.4
v 0.2 0.1 0.4
v 0.4 0.1 0.4
v 0.5 0.1 0.4
v -0.6 0.1 0.3
v -0.5 0.1 0.3
v 0.5 0.1 0.3
v 0.6 0.1 0.3
v -0.6 0.1 -0.4
v -0.5 0.1 -0.4
v -0.4 0.1 -0.4
v -0.3 0.1 -0.4
v 0.3 0.1 -0.4
v 0.4 0.1 -0.4
v 0.5 0.1 -0.4
v 0.6 0.1 -0.4
v -0.5 0.1 -0.5
v -0.4 0.1 -0.5
v 0.4 0.1 -0.5
v 0.5 0.1 -0.5
v -0.4 0.1 -0.6
v -0.3 0.1 -0.6
v 0.3 0.1 -0.6
v 0.4 0.1 -0.6
v -0.3 0.2 0.6
v -0.2 0.2 0.6
v 0.2 0.2 0.6
v 0.3 0.2 0.6
v -0.3 0.2 0.5
v -0.2 0.2 0.5
v 0.2 0.2 0.5
v 0.3 0.2 0.5
v -0.2 0.2 0.5
v -0.1 0.2 0.5
v 0.1 0.2 0.5
v 0.2 0.2 0.5
v -0.2 0.2 0.4
v -0.1 0.2 0.4
v 0.1 0.2 0.4
v 0.2 0.2 0.4
v -0.3 0.3 0.6
v -0.2 0.3 0.6
v 0.2 0.3 0.6
v 0.3 0.3 0.6
v -0.3 0.3 0.5
v -0.2 0.3 0.5
v 0.2 0.3 0.5
v 0.3 0.3 0.5
v -0.5 0.7 0.4
v -0.4 0.7 0.4
v 0.4 0.7 0.4
v 0.5 0.7 0.4
v -0.6 0.7 0.3
v -0.5 0.7 0.3
v -0.4 0.7 0.3
v 0.4 0.7 0.3
v 0.5 0.7 0.3
v 0.6 0.7 0.3
v -0.6 0.7 -0.4
v -0.5 0.7 -0.4
v -0.4 0.7 -0.4
v 0.4 0.7 -0.4
v 0.5 0.7 -0.4
v 0.6 0.7 -0.4
v -0.5 0.7 -0.5
v -0.4 0.7 -0.5
v -0.3 0.7 -0.5
v 0.3 0.7 -0.5
v 0.4 0.7 -0.5
v 0.5 0.7 -0.5
v -0.4 0.7 -0.6
v -0.3 0.7 -0.6
v 0.3 0.7 -0.6
v 0.4 0.7 -0.6
v -0.4 0.8 0.4
v -0.3 0.8 0.4
v 0.3 0.8 0.4
v 0.4 0.8 0.4
v -0.5 0.8 0.3
v -0.4 0.8 0.3
v -0.3 0.8 0.3
v 0.3 0.8 0.3
v 0.4 0.8 0.3
v 0.5 0.8 0.3
v -0.5 0.8 -0.4
v -0.4 0.8 -0.4
v -0.3 0.8 -0.4
v 0.3 0.8 -0.4
v 0.4 0.8 -0.4
v 0.5 0.8 -0.4
v -0.4 0.8 -0.5
v -0.3 0.8 -0.5
v 0.3 0.8 -0.5
v 0.4 0.8 -0.5
v -0.3 0.8 -0.6
v 0.3 0.8 -0.6
v -0.3 0.9 0.4
v 0.3 0.9 0.4
v -0.4 0.9 0.3
v -0.3 0.9 0.3
v 0.3 0.9 0.3
v 0.4 0.9 0.3
v -0.4 0.9 -0.4
v -0.3 0.9 -0.4
v 0.3 0.9 -0.4
v 0.4 0.9 -0.4
v -0.3 0.9 -0.5
v 0.3 0.9 -0.5

# faces
f 3/7/1 2/7/1 1/7/1
f 4/7/1 2/7/1 3/7/1
f 9/7/1 6/7/1 5/7/1
f 10/7/1 6/7/1 9/7/1
f 11/7/1 8/7/1 7/7/1
f 12/7/1 8/7/1 11/7/1
f 13/7/1 11/7/1 10/7/1
f 14/7/1 11/7/1 13/7/1
f 17/7/1 16/7/1 15/7/1
f 18/7/1 16/7/1 17/7/1
f 24/7/1 20/7/1 19/7/1
f 25/7/1 20/7/1 24/7/1
f 26/7/1 22/7/1 21/7/1
f 27/7/1 22/7/1 26/7/1
f 28/7/1 24/7/1 23/7/1
f 29/7/1 24/7/1 28/7/1
f 30/7/1 28/7/1 27/7/1
f 31/7/1 28/7/1 30/7/1
f 34/7/1 33/7/1 32/7/1
f 35/7/1 33/7/1 34/7/1
f 38/4/1 37/4/1 36/4/1
f 39/4/1 37/4/1 38/4/1
f 45/7/1 41/7/1 40/7/1
f 46/7/1 41/7/1 45/7/1
f 47/7/1 43/7/1 42/7/1
f 48/7/1 43/7/1 47/7/1
f 49/7/1 45/7/1 44/7/1
f 50/7/1 45/7/1 49/7/1
f 53/4/1 52/4/1 51/4/1
f 54/4/1 52/4/1 53/4/1
f 57/4/1 56/4/1 55/4/1
f 58/4/1 56/4/1 57/4/1
f 61/4/1 60/4/1 59/4/1
f 62/4/1 60/4/1 61/4/1
f 63/4/2 64/4/2 65/4/2
f 65/4/2 64/4/2 66/4/2
f 67/4/2 68/4/2 69/4/2
f 69/4/2 68/4/2 70/4/2
f 71/4/2 72/4/2 73/4/2
f 73/4/2 72/4/2 74/4/2
f 75/7/2 76/7/2 77/7/2
f 77/7/2 76/7/2 78/7/2
f 79/4/2 80/4/2 81/4/2
f 81/4/2 80/4/2 82/4/2
f 83/7/2 84/7/2 88/7/2
f 88/7/2 84/7/2 89/7/2
f 85/7/2 86/7/2 90/7/2
f 90/7/2 86/7/2 91/7/2
f 87/7/2 88/7/2 92/7/2
f 92/7/2 88/7/2 93/7/2
f 94/7/2 95/7/2 96/7/2
f 96/7/2 95/7/2 97/7/2
f 98/7/2 99/7/2 103/7/2
f 103/7/2 99/7/2 104/7/2
f 100/7/2 101/7/2 105/7/2
f 105/7/2 101/7/2 106/7/2
f 102/7/2 103/7/2 107/7/2
f 107/7/2 103/7/2 108/7/2
f 106/7/2 107/7/2 109/7/2
f 109/7/2 107/7/2 110/7/2
f 111/7/2 112/7/2 115/7/2
f 115/7/2 112/7/2 116/7/2
f 113/7/2 114/7/2 117/7/2
f 117/7/2 114/7/2 118/7/2
f 116/7/2 117/7/2 119/7/2
f 119/7/2 117/7/2 120/7/2
f 121/7/2 122/7/2 123/7/2
f 123/7/2 122/7/2 124/7/2
f 127/4/3 126/4/3 125/4/3
f 128/4/3 126/4/3 127/4/3
f 131/4/3 130/4/3 129/4/3
f 132/4/3 130/4/3 131/4/3
f 135/4/3 134/4/3 133/4/3
f 136/4/3 134/4/3 135/4/3
f 139/4/3 138/4/3 137/4/3
f 140/4/3 138/4/3 139/4/3
f 144/7/3 142/7/3 141/7/3
f 145/7/3 142/7/3 144/7/3
f 146/7/3 142/7/3 145/7/3
f 147/7/3 142/7/3 146/7/3
f 149/7/3 144/7/3 143/7/3
f 150/1/3 145/1/3 144/1/3
f 150/7/3 144/7/3 149/7/3
f 151/6/3 146/6/3 145/6/3
f 151/1/3 145/1/3 150/1/3
f 152/4/3 147/4/3 146/4/3
f 152/6/3 146/6/3 151/6/3
f 153/7/3 148/7/3 147/7/3
f 153/4/3 147/4/3 152/4/3
f 154/7/3 148/7/3 153/7/3
f 156/1/3 150/1/3 149/1/3
f 156/1/3 151/1/3 150/1/3
f 157/1/3 151/1/3 156/1/3
f 158/2/3 152/2/3 151/2/3
f 158/1/3 151/1/3 157/1/3
f 159/2/3 152/2/3 158/2/3
f 160/4/3 153/4/3 152/4/3
f 160/2/3 152/2/3 159/2/3
f 161/1/3 154/1/3 153/1/3
f 161/4/3 153/4/3 160/4/3
f 162/1/3 156/1/3 149/1/3
f 163/1/3 159/1/3 158/1/3
f 163/1/3 158/1/3 157/1/3
f 164/4/3 160/4/3 159/4/3
f 164/1/3 159/1/3 163/1/3
f 165/1/3 161/1/3 160/1/3
f 165/4/3 160/4/3 164/4/3
f 166/3/3 163/3/3 162/3/3
f 166/1/3 162/1/3 149/1/3
f 167/1/3 165/1/3 164/1/3
f 167/3/3 163/3/3 166/3/3
f 167/1/3 164/1/3 163/1/3
f 168/1/3 165/1/3 167/1/3
f 169/1/3 161/1/3 165/1/3
f 169/1/3 165/1/3 168/1/3
f 170/1/3 166/1/3 149/1/3
f 171/1/3 168/1/3 167/1/3
f 172/1/3 168/1/3 171/1/3
f 173/4/3 169/4/3 168/4/3
f 173/1/3 168/1/3 172/1/3
f 174/1/3 161/1/3 169/1/3
f 174/4/3 169/4/3 173/4/3
f 175/1/3 154/1/3 161/1/3
f 175/1/3 161/1/3 174/1/3
f 176/1/3 170/1/3 149/1/3
f 176/1/3 172/1/3 171/1/3
f 176/1/3 171/1/3 170/1/3
f 177/1/3 172/1/3 176/1/3
f 178/2/3 174/2/3 173/2/3
f 178/1/3 172/1/3 177/1/3
f 178/2/3 173/2/3 172/2/3
f 179/4/3 175/4/3 174/4/3
f 179/2/3 174/2/3 178/2/3
f 180/1/3 154/1/3 175/1/3
f 180/4/3 175/4/3 179/4/3
f 181/7/3 155/7/3 154/7/3
f 181/1/3 154/1/3 180/1/3
f 182/7/3 155/7/3 181/7/3
f 183/7/3 177/7/3 176/7/3
f 184/1/3 178/1/3 177/1/3
f 184/7/3 177/7/3 183/7/3
f 185/6/3 179/6/3 178/6/3
f 185/1/3 178/1/3 184/1/3
f 186/4/3 180/4/3 179/4/3
f 186/6/3 179/6/3 185/6/3
f 187/7/3 181/7/3 180/7/3
f 187/4/3 180/4/3 186/4/3
f 188/7/3 181/7/3 187/7/3
f 189/7/3 185/7/3 184/7/3
f 189/7/3 187/7/3 186/7/3
f 189/7/3 186/7/3 185/7/3
f 190/7/3 187/7/3 189/7/3
f 193/7/3 192/7/3 191/7/3
f 194/7/3 192/7/3 193/7/3
f 196/7/3 195/7/3 194/7/3
f 197/7/3 195/7/3 196/7/3
f 199/7/3 198/7/3 197/7/3
f 200/7/3 198/7/3 199/7/3
f 204/7/3 202/7/3 201/7/3
f 205/7/3 202/7/3 204/7/3
f 207/7/3 204/7/3 203/7/3
f 208/7/3 204/7/3 207/7/3
f 209/7/3 207/7/3 206/7/3
f 210/7/3 207/7/3 209/7/3
f 211/4/4 212/4/4 213/4/4
f 213/4/4 212/4/4 214/4/4
f 215/4/4 216/4/4 217/4/4
f 217/4/4 216/4/4 218/4/4
f 219/7/4 220/7/4 221/7/4
f 221/7/4 220/7/4 222/7/4
f 222/7/4 223/7/4 226/7/4
f 226/7/4 223/7/4 227/7/4
f 224/7/4 225/7/4 229/7/4
f 229/7/4 225/7/4 230/7/4
f 227/7/4 228/7/4 231/7/4
f 231/7/4 228/7/4 232/7/4
f 233/7/4 234/7/4 237/7/4
f 237/7/4 234/7/4 238/7/4
f 235/7/4 236/7/4 240/7/4
f 240/7/4 236/7/4 241/7/4
f 239/7/4 240/7/4 243/7/4
f 243/7/4 240/7/4 244/7/4
f 242/7/4 243/7/4 245/7/4
f 245/7/4 243/7/4 246/7/4
f 247/7/4 248/7/4 249/7/4
f 249/7/4 248/7/4 250/7/4
f 250/7/4 251/7/4 252/7/4
f 252/7/4 251/7/4 253/7/4
f 253/7/4 254/7/4 256/7/4
f 256/7/4 254/7/4 257/7/4
f 255/7/4 256/7/4 259/7/4
f 259/7/4 256/7/4 260/7/4
f 258/7/4 259/7/4 261/7/4
f 261/7/4 259/7/4 262/7/4
f 263/7/4 264/7/4 266/7/4
f 266/7/4 264/7/4 267/7/4
f 265/7/4 266/7/4 269/7/4
f 267/7/4 268/7/4 269/7/4
f 266/7/4 267/7/4 269/7/4
f 269/7/4 268/7/4 270/7/4
f 270/7/4 268/7/4 271/7/4
f 271/7/4 268/7/4 272/7/4
f 270/7/4 271/7/4 273/7/4
f 273/7/4 271/7/4 274/7/4
f 279/7/5 276/7/5 275/7/5
f 280/1/5 277/1/5 276/1/5
f 280/7/5 276/7/5 279/7/5
f 281/7/5 278/7/5 277/7/5
f 281/1/5 277/1/5 280/1/5
f 282/7/5 278/7/5 281/7/5
f 283/7/5 281/7/5 280/7/5
f 284/7/5 281/7/5 283/7/5
f 291/4/5 286/4/5 285/4/5
f 292/4/5 286/4/5 291/4/5
f 293/4/5 288/4/5 287/4/5
f 294/4/5 288/4/5 293/4/5
f 298/7/5 290/7/5 289/7/5
f 299/7/5 296/7/5 295/7/5
f 301/7/5 298/7/5 297/7/5
f 302/7/5 290/7/5 298/7/5
f 302/7/5 298/7/5 301/7/5
f 303/7/5 290/7/5 302/7/5
f 306/7/5 300/7/5 299/7/5
f 306/7/5 299/7/5 295/7/5
f 307/7/5 300/7/5 306/7/5
f 308/7/5 300/7/5 307/7/5
f 309/7/5 304/7/5 303/7/5
f 309/7/5 303/7/5 302/7/5
f 310/7/5 304/7/5 309/7/5
f 311/7/5 307/7/5 306/7/5
f 311/7/5 306/7/5 305/7/5
f 312/7/5 307/7/5 311/7/5
f 313/7/5 304/7/5 310/7/5
f 314/7/5 304/7/5 313/7/5
f 315/7/5 311/7/5 305/7/5
f 316/7/5 311/7/5 315/7/5
f 321/4/5 318/4/5 317/4/5
f 322/4/5 318/4/5 321/4/5
f 323/4/5 320/4/5 319/4/5
f 324/4/5 320/4/5 323/4/5
f 325/4/6 326/4/6 329/4/6
f 329/4/6 326/4/6 330/4/6
f 327/4/6 328/4/6 331/4/6
f 331/4/6 328/4/6 332/4/6
f 333/4/6 334/4/6 337/4/6
f 337/4/6 334/4/6 338/4/6
f 335/4/6 336/4/6 339/4/6
f 339/4/6 336/4/6 340/4/6
f 341/7/6 342/7/6 346/7/6
f 346/7/6 342/7/6 347/7/6
f 343/7/6 344/7/6 348/7/6
f 348/7/6 344/7/6 349/7/6
f 345/7/6 346/7/6 351/7/6
f 351/7/6 346/7/6 352/7/6
f 349/7/6 350/7/6 355/7/6
f 355/7/6 350/7/6 356/7/6
f 352/7/6 353/7/6 357/7/6
f 357/7/6 353/7/6 358/7/6
f 354/7/6 355/7/6 361/7/6
f 361/7/6 355/7/6 362/7/6
f 358/7/6 359/7/6 363/7/6
f 363/7/6 359/7/6 364/7/6
f 360/7/6 361/7/6 365/7/6
f 365/7/6 361/7/6 366/7/6
f 367/7/6 368/7/6 372/7/6
f 372/7/6 368/7/6 373/7/6
f 369/7/6 370/7/6 374/7/6
f 374/7/6 370/7/6 375/7/6
f 371/7/6 372/7/6 377/7/6
f 377/7/6 372/7/6 378/7/6
f 375/7/6 376/7/6 381/7/6
f 381/7/6 376/7/6 382/7/6
f 378/7/6 379/7/6 383/7/6
f 383/7/6 379/7/6 384/7/6
f 380/7/6 381/7/6 385/7/6
f 385/7/6 381/7/6 386/7/6
f 384/7/6 385/7/6 387/7/6
f 387/7/6 385/7/6 388/7/6
f 389/7/6 390/7/6 392/7/6
f 392/7/6 390/7/6 393/7/6
f 391/7/6 392/7/6 395/7/6
f 393/7/6 394/7/6 395/7/6
f 392/7/6 393/7/6 395/7/6
f 395/7/6 394/7/6 396/7/6
f 396/7/6 394/7/6 397/7/6
f 397/7/6 394/7/6 398/7/6
f 396/7/6 397/7/6 399/7/6
f 399/7/6 397/7/6 400/7/6
