# MagicaVoxel @ Ephtracy

# group
o 

# material
mtllib the_hut-1.mtl
usemtl palette

# normals
vn -1 0 0
vn 1 0 0
vn 0 0 1
vn 0 0 -1
vn 0 -1 0
vn 0 1 0

# texcoords
vt 0.00585938 0.5
vt 0.00976563 0.5
vt 0.0136719 0.5
vt 0.0175781 0.5
vt 0.861328 0.5

# verts
v -0.2 0 1.1
v -0.2 0 -1.3
v -0.2 3.7 1.1
v -0.2 3.7 -1.3
v 0.2 1.7 -0.8
v 0.2 1.7 -0.9
v 0.2 1.9 -0.8
v 0.2 1.9 -0.9
v 0.1 0 0.7
v 0.1 0 0.6
v 0.1 0 0.2
v 0.1 0 0.1
v 0.1 0 -0.3
v 0.1 0 -0.4
v 0.1 0 -0.8
v 0.1 0 -0.9
v 0.1 0.1 0.7
v 0.1 0.1 0.6
v 0.1 0.1 0.2
v 0.1 0.1 0.1
v 0.1 0.1 -0.3
v 0.1 0.1 -0.4
v 0.1 0.1 -0.8
v 0.1 0.1 -0.9
v 0.1 0.2 -0.3
v 0.1 0.2 -0.4
v 0.1 0.3 -0.8
v 0.1 0.3 -0.9
v 0.1 0.4 -0.8
v 0.1 0.4 -0.9
v 0.1 0.5 0.7
v 0.1 0.5 0.6
v 0.1 0.5 0.2
v 0.1 0.5 0.1
v 0.1 0.5 -0.8
v 0.1 0.5 -0.9
v 0.1 0.7 0.7
v 0.1 0.7 0.6
v 0.1 0.7 0.2
v 0.1 0.7 0.1
v 0.1 0.7 -0.3
v 0.1 0.7 -0.4
v 0.1 0.7 -0.8
v 0.1 0.7 -0.9
v 0.1 1.6 0.7
v 0.1 1.7 0.7
v 0.1 1.7 0.6
v 0.1 1.8 0.7
v 0.1 1.8 0.6
v 0.1 1.9 0.7
v 0.1 2.6 -0.3
v 0.1 2.6 -0.4
v 0.1 2.7 -0.8
v 0.1 2.7 -0.9
v 0.1 2.8 -0.8
v 0.1 2.8 -0.9
v 0.1 2.9 -0.3
v 0.1 2.9 -0.4
v 0.1 3 0.7
v 0.1 3 0.6
v 0.1 3 0.2
v 0.1 3 0.1
v 0.1 3 -0.3
v 0.1 3 -0.4
v 0.1 3 -0.8
v 0.1 3 -0.9
v 0.1 3.2 0.7
v 0.1 3.2 0.6
v 0.1 3.2 0.2
v 0.1 3.2 0.1
v 0.1 3.2 -0.3
v 0.1 3.2 -0.4
v 0.1 3.2 -0.8
v 0.1 3.2 -0.9
v 0.1 3.6 0.7
v 0.1 3.6 0.6
v 0.1 3.6 0.2
v 0.1 3.6 0.1
v 0.1 3.6 -0.3
v 0.1 3.6 -0.4
v 0.1 3.6 -0.8
v 0.1 3.6 -0.9
v 0.1 3.7 0.7
v 0.1 3.7 0.6
v 0.1 3.7 0.2
v 0.1 3.7 0.1
v 0.1 3.7 -0.3
v 0.1 3.7 -0.4
v 0.1 3.7 -0.8
v 0.1 3.7 -0.9
v 0.2 0 1.1
v 0.2 0 0.7
v 0.2 0 0.6
v 0.2 0 0.2
v 0.2 0 0.1
v 0.2 0 -0.3
v 0.2 0 -0.4
v 0.2 0 -0.8
v 0.2 0 -0.9
v 0.2 0 -1.3
v 0.2 0.2 -0.3
v 0.2 0.2 -0.4
v 0.2 0.3 -0.2
v 0.2 0.3 -0.3
v 0.2 0.3 -0.4
v 0.2 0.3 -0.8
v 0.2 0.3 -0.9
v 0.2 0.3 -1.3
v 0.2 0.4 -0.2
v 0.2 0.4 -0.3
v 0.2 0.4 -0.4
v 0.2 0.4 -0.8
v 0.2 0.4 -0.9
v 0.2 0.4 -1.3
v 0.2 0.5 1.1
v 0.2 0.5 0.7
v 0.2 0.5 0.6
v 0.2 0.5 0.2
v 0.2 0.5 0.1
v 0.2 0.5 -0.3
v 0.2 0.5 -0.4
v 0.2 0.5 -0.8
v 0.2 0.5 -0.9
v 0.2 0.5 -1.3
v 0.2 0.7 1.1
v 0.2 0.7 0.7
v 0.2 0.7 0.6
v 0.2 0.7 0.2
v 0.2 0.7 0.1
v 0.2 0.7 -0.3
v 0.2 0.7 -0.4
v 0.2 0.7 -0.8
v 0.2 0.7 -0.9
v 0.2 0.7 -1.3
v 0.2 1.6 0.8
v 0.2 1.6 0.7
v 0.2 1.7 1.1
v 0.2 1.7 0.8
v 0.2 1.7 0.7
v 0.2 1.7 0.6
v 0.2 1.7 -0.7
v 0.2 1.7 -0.8
v 0.2 1.7 -0.9
v 0.2 1.8 1.1
v 0.2 1.8 0.8
v 0.2 1.8 0.7
v 0.2 1.8 0.6
v 0.2 1.9 0.8
v 0.2 1.9 0.7
v 0.2 1.9 -0.7
v 0.2 1.9 -0.8
v 0.2 1.9 -0.9
v 0.2 2.6 -0.3
v 0.2 2.6 -0.4
v 0.2 2.7 -0.2
v 0.2 2.7 -0.3
v 0.2 2.7 -0.4
v 0.2 2.7 -0.8
v 0.2 2.7 -0.9
v 0.2 2.7 -1.3
v 0.2 2.8 -0.2
v 0.2 2.8 -0.3
v 0.2 2.8 -0.4
v 0.2 2.8 -0.8
v 0.2 2.8 -0.9
v 0.2 2.8 -1.3
v 0.2 2.9 -0.3
v 0.2 2.9 -0.4
v 0.2 3 1.1
v 0.2 3 0.7
v 0.2 3 0.6
v 0.2 3 0.2
v 0.2 3 0.1
v 0.2 3 -0.3
v 0.2 3 -0.4
v 0.2 3 -0.8
v 0.2 3 -0.9
v 0.2 3 -1.3
v 0.2 3.2 1.1
v 0.2 3.2 0.7
v 0.2 3.2 0.6
v 0.2 3.2 0.2
v 0.2 3.2 0.1
v 0.2 3.2 -0.3
v 0.2 3.2 -0.4
v 0.2 3.2 -0.8
v 0.2 3.2 -0.9
v 0.2 3.2 -1.3
v 0.2 3.7 1.1
v 0.2 3.7 0.7
v 0.2 3.7 0.6
v 0.2 3.7 0.2
v 0.2 3.7 0.1
v 0.2 3.7 -0.3
v 0.2 3.7 -0.4
v 0.2 3.7 -0.8
v 0.2 3.7 -0.9
v 0.2 3.7 -1.3
v 0.3 0.5 1.1
v 0.3 0.5 -1.3
v 0.3 0.7 1.1
v 0.3 0.7 -1.3
v 0.3 1.7 -0.7
v 0.3 1.7 -0.9
v 0.3 1.9 -0.7
v 0.3 1.9 -0.9
v 0.3 3 1.1
v 0.3 3 -1.3
v 0.3 3.2 1.1
v 0.3 3.2 -1.3
v -0.2 0 1.1
v -0.2 3.7 1.1
v 0.1 1.7 1.1
v 0.1 1.8 1.1
v 0.2 0 1.1
v 0.2 0.5 1.1
v 0.2 0.7 1.1
v 0.2 1.7 1.1
v 0.2 1.8 1.1
v 0.2 3 1.1
v 0.2 3.2 1.1
v 0.2 3.7 1.1
v 0.3 0.5 1.1
v 0.3 0.7 1.1
v 0.3 3 1.1
v 0.3 3.2 1.1
v 0.1 0 0.6
v 0.1 0.1 0.6
v 0.1 0.5 0.6
v 0.1 0.7 0.6
v 0.1 1.7 0.6
v 0.1 1.8 0.6
v 0.1 3 0.6
v 0.1 3.2 0.6
v 0.1 3.6 0.6
v 0.1 3.7 0.6
v 0.2 0 0.6
v 0.2 0.5 0.6
v 0.2 0.7 0.6
v 0.2 1.7 0.6
v 0.2 1.8 0.6
v 0.2 3 0.6
v 0.2 3.2 0.6
v 0.2 3.7 0.6
v 0.1 0 0.1
v 0.1 0.1 0.1
v 0.1 0.5 0.1
v 0.1 0.7 0.1
v 0.1 3 0.1
v 0.1 3.2 0.1
v 0.1 3.6 0.1
v 0.1 3.7 0.1
v 0.2 0 0.1
v 0.2 0.5 0.1
v 0.2 0.7 0.1
v 0.2 3 0.1
v 0.2 3.2 0.1
v 0.2 3.7 0.1
v 0.1 0 -0.4
v 0.1 0.1 -0.4
v 0.1 0.2 -0.4
v 0.1 0.7 -0.4
v 0.1 2.6 -0.4
v 0.1 2.9 -0.4
v 0.1 3 -0.4
v 0.1 3.2 -0.4
v 0.1 3.6 -0.4
v 0.1 3.7 -0.4
v 0.2 0 -0.4
v 0.2 0.2 -0.4
v 0.2 0.7 -0.4
v 0.2 2.6 -0.4
v 0.2 2.9 -0.4
v 0.2 3 -0.4
v 0.2 3.2 -0.4
v 0.2 3.7 -0.4
v 0.2 1.7 -0.7
v 0.2 1.9 -0.7
v 0.3 1.7 -0.7
v 0.3 1.9 -0.7
v 0.1 0 -0.9
v 0.1 0.1 -0.9
v 0.1 0.3 -0.9
v 0.1 0.4 -0.9
v 0.1 0.5 -0.9
v 0.1 0.7 -0.9
v 0.1 2.7 -0.9
v 0.1 2.8 -0.9
v 0.1 3 -0.9
v 0.1 3.2 -0.9
v 0.1 3.6 -0.9
v 0.1 3.7 -0.9
v 0.2 0 -0.9
v 0.2 0.3 -0.9
v 0.2 0.4 -0.9
v 0.2 0.5 -0.9
v 0.2 0.7 -0.9
v 0.2 1.7 -0.9
v 0.2 1.9 -0.9
v 0.2 2.7 -0.9
v 0.2 2.8 -0.9
v 0.2 3 -0.9
v 0.2 3.2 -0.9
v 0.2 3.7 -0.9
v 0.1 0 0.7
v 0.1 0.1 0.7
v 0.1 0.5 0.7
v 0.1 0.7 0.7
v 0.1 1.6 0.7
v 0.1 1.7 0.7
v 0.1 1.8 0.7
v 0.1 1.9 0.7
v 0.1 3 0.7
v 0.1 3.2 0.7
v 0.1 3.6 0.7
v 0.1 3.7 0.7
v 0.2 0 0.7
v 0.2 0.5 0.7
v 0.2 0.7 0.7
v 0.2 1.6 0.7
v 0.2 1.7 0.7
v 0.2 1.8 0.7
v 0.2 1.9 0.7
v 0.2 3 0.7
v 0.2 3.2 0.7
v 0.2 3.7 0.7
v 0.1 0 0.2
v 0.1 0.1 0.2
v 0.1 0.5 0.2
v 0.1 0.7 0.2
v 0.1 3 0.2
v 0.1 3.2 0.2
v 0.1 3.6 0.2
v 0.1 3.7 0.2
v 0.2 0 0.2
v 0.2 0.5 0.2
v 0.2 0.7 0.2
v 0.2 3 0.2
v 0.2 3.2 0.2
v 0.2 3.7 0.2
v 0.1 0 -0.3
v 0.1 0.1 -0.3
v 0.1 0.2 -0.3
v 0.1 0.7 -0.3
v 0.1 2.6 -0.3
v 0.1 2.9 -0.3
v 0.1 3 -0.3
v 0.1 3.2 -0.3
v 0.1 3.6 -0.3
v 0.1 3.7 -0.3
v 0.2 0 -0.3
v 0.2 0.2 -0.3
v 0.2 0.7 -0.3
v 0.2 2.6 -0.3
v 0.2 2.9 -0.3
v 0.2 3 -0.3
v 0.2 3.2 -0.3
v 0.2 3.7 -0.3
v 0.1 0 -0.8
v 0.1 0.1 -0.8
v 0.1 0.3 -0.8
v 0.1 0.4 -0.8
v 0.1 0.5 -0.8
v 0.1 0.7 -0.8
v 0.1 2.7 -0.8
v 0.1 2.8 -0.8
v 0.1 3 -0.8
v 0.1 3.2 -0.8
v 0.1 3.6 -0.8
v 0.1 3.7 -0.8
v 0.2 0 -0.8
v 0.2 0.3 -0.8
v 0.2 0.4 -0.8
v 0.2 0.5 -0.8
v 0.2 0.7 -0.8
v 0.2 1.7 -0.8
v 0.2 1.9 -0.8
v 0.2 2.7 -0.8
v 0.2 2.8 -0.8
v 0.2 3 -0.8
v 0.2 3.2 -0.8
v 0.2 3.7 -0.8
v 0.2 1.7 -0.9
v 0.2 1.9 -0.9
v 0.3 1.7 -0.9
v 0.3 1.9 -0.9
v -0.2 0 -1.3
v -0.2 3.7 -1.3
v 0.1 0.3 -1.3
v 0.1 0.4 -1.3
v 0.1 2.7 -1.3
v 0.1 2.8 -1.3
v 0.2 0 -1.3
v 0.2 0.3 -1.3
v 0.2 0.4 -1.3
v 0.2 0.5 -1.3
v 0.2 0.7 -1.3
v 0.2 2.7 -1.3
v 0.2 2.8 -1.3
v 0.2 3 -1.3
v 0.2 3.2 -1.3
v 0.2 3.7 -1.3
v 0.3 0.5 -1.3
v 0.3 0.7 -1.3
v 0.3 3 -1.3
v 0.3 3.2 -1.3
v -0.2 0 1.1
v 0.2 0 1.1
v 0.1 0 0.7
v 0.2 0 0.7
v 0.1 0 0.6
v 0.2 0 0.6
v 0.1 0 0.2
v 0.2 0 0.2
v 0.1 0 0.1
v 0.2 0 0.1
v 0.1 0 -0.3
v 0.2 0 -0.3
v 0.1 0 -0.4
v 0.2 0 -0.4
v 0.1 0 -0.8
v 0.2 0 -0.8
v 0.1 0 -0.9
v 0.2 0 -0.9
v -0.2 0 -1.3
v 0.2 0 -1.3
v 0.1 0.2 -0.3
v 0.2 0.2 -0.3
v 0.1 0.2 -0.4
v 0.2 0.2 -0.4
v 0.1 0.3 -0.8
v 0.2 0.3 -0.8
v 0.1 0.3 -0.9
v 0.2 0.3 -0.9
v 0.2 0.5 1.1
v 0.3 0.5 1.1
v 0.1 0.5 0.7
v 0.2 0.5 0.7
v 0.1 0.5 0.6
v 0.2 0.5 0.6
v 0.1 0.5 0.2
v 0.2 0.5 0.2
v 0.1 0.5 0.1
v 0.2 0.5 0.1
v 0.2 0.5 -0.3
v 0.2 0.5 -0.4
v 0.1 0.5 -0.8
v 0.2 0.5 -0.8
v 0.1 0.5 -0.9
v 0.2 0.5 -0.9
v 0.2 0.5 -1.3
v 0.3 0.5 -1.3
v 0.1 1.7 0.7
v 0.2 1.7 0.7
v 0.1 1.7 0.6
v 0.2 1.7 0.6
v 0.2 1.7 -0.7
v 0.3 1.7 -0.7
v 0.2 1.7 -0.8
v 0.2 1.7 -0.9
v 0.3 1.7 -0.9
v 0.1 2.6 -0.3
v 0.2 2.6 -0.3
v 0.1 2.6 -0.4
v 0.2 2.6 -0.4
v 0.1 2.7 -0.8
v 0.2 2.7 -0.8
v 0.1 2.7 -0.9
v 0.2 2.7 -0.9
v 0.2 3 1.1
v 0.3 3 1.1
v 0.1 3 0.7
v 0.2 3 0.7
v 0.1 3 0.6
v 0.2 3 0.6
v 0.1 3 0.2
v 0.2 3 0.2
v 0.1 3 0.1
v 0.2 3 0.1
v 0.1 3 -0.3
v 0.2 3 -0.3
v 0.1 3 -0.4
v 0.2 3 -0.4
v 0.1 3 -0.8
v 0.2 3 -0.8
v 0.1 3 -0.9
v 0.2 3 -0.9
v 0.2 3 -1.3
v 0.3 3 -1.3
v 0.1 0.4 -0.8
v 0.2 0.4 -0.8
v 0.1 0.4 -0.9
v 0.2 0.4 -0.9
v 0.2 0.7 1.1
v 0.3 0.7 1.1
v 0.1 0.7 0.7
v 0.2 0.7 0.7
v 0.1 0.7 0.6
v 0.2 0.7 0.6
v 0.1 0.7 0.2
v 0.2 0.7 0.2
v 0.1 0.7 0.1
v 0.2 0.7 0.1
v 0.1 0.7 -0.3
v 0.2 0.7 -0.3
v 0.1 0.7 -0.4
v 0.2 0.7 -0.4
v 0.1 0.7 -0.8
v 0.2 0.7 -0.8
v 0.1 0.7 -0.9
v 0.2 0.7 -0.9
v 0.2 0.7 -1.3
v 0.3 0.7 -1.3
v 0.1 1.8 0.7
v 0.2 1.8 0.7
v 0.1 1.8 0.6
v 0.2 1.8 0.6
v 0.2 1.9 -0.7
v 0.3 1.9 -0.7
v 0.2 1.9 -0.8
v 0.2 1.9 -0.9
v 0.3 1.9 -0.9
v 0.1 2.8 -0.8
v 0.2 2.8 -0.8
v 0.1 2.8 -0.9
v 0.2 2.8 -0.9
v 0.1 2.9 -0.3
v 0.2 2.9 -0.3
v 0.1 2.9 -0.4
v 0.2 2.9 -0.4
v 0.2 3.2 1.1
v 0.3 3.2 1.1
v 0.1 3.2 0.7
v 0.2 3.2 0.7
v 0.1 3.2 0.6
v 0.2 3.2 0.6
v 0.1 3.2 0.2
v 0.2 3.2 0.2
v 0.1 3.2 0.1
v 0.2 3.2 0.1
v 0.1 3.2 -0.3
v 0.2 3.2 -0.3
v 0.1 3.2 -0.4
v 0.2 3.2 -0.4
v 0.1 3.2 -0.8
v 0.2 3.2 -0.8
v 0.1 3.2 -0.9
v 0.2 3.2 -0.9
v 0.2 3.2 -1.3
v 0.3 3.2 -1.3
v -0.2 3.7 1.1
v 0.2 3.7 1.1
v 0.1 3.7 0.7
v 0.2 3.7 0.7
v 0.1 3.7 0.6
v 0.2 3.7 0.6
v 0.1 3.7 0.2
v 0.2 3.7 0.2
v 0.1 3.7 0.1
v 0.2 3.7 0.1
v 0.1 3.7 -0.3
v 0.2 3.7 -0.3
v 0.1 3.7 -0.4
v 0.2 3.7 -0.4
v 0.1 3.7 -0.8
v 0.2 3.7 -0.8
v 0.1 3.7 -0.9
v 0.2 3.7 -0.9
v -0.2 3.7 -1.3
v 0.2 3.7 -1.3

# faces
f 3/1/1 2/1/1 1/1/1
f 4/1/1 2/1/1 3/1/1
f 7/4/1 6/4/1 5/4/1
f 8/4/1 6/4/1 7/4/1
f 9/1/2 10/1/2 17/1/2
f 17/1/2 10/1/2 18/1/2
f 11/1/2 12/1/2 19/1/2
f 19/1/2 12/1/2 20/1/2
f 13/1/2 14/1/2 21/1/2
f 21/1/2 14/1/2 22/1/2
f 15/1/2 16/1/2 23/1/2
f 23/1/2 16/1/2 24/1/2
f 21/5/2 22/5/2 25/5/2
f 25/5/2 22/5/2 26/5/2
f 23/5/2 24/5/2 27/5/2
f 27/5/2 24/5/2 28/5/2
f 17/5/2 18/5/2 31/5/2
f 31/5/2 18/5/2 32/5/2
f 19/5/2 20/5/2 33/5/2
f 33/5/2 20/5/2 34/5/2
f 29/5/2 30/5/2 35/5/2
f 35/5/2 30/5/2 36/5/2
f 37/5/2 38/5/2 45/5/2
f 45/5/2 38/5/2 46/5/2
f 46/5/2 38/5/2 47/5/2
f 48/5/2 49/5/2 50/5/2
f 41/5/2 42/5/2 51/5/2
f 51/5/2 42/5/2 52/5/2
f 43/5/2 44/5/2 53/5/2
f 53/5/2 44/5/2 54/5/2
f 50/5/2 49/5/2 59/5/2
f 59/5/2 49/5/2 60/5/2
f 39/5/2 40/5/2 61/5/2
f 61/5/2 40/5/2 62/5/2
f 57/5/2 58/5/2 63/5/2
f 63/5/2 58/5/2 64/5/2
f 55/5/2 56/5/2 65/5/2
f 65/5/2 56/5/2 66/5/2
f 67/5/2 68/5/2 75/5/2
f 75/5/2 68/5/2 76/5/2
f 69/5/2 70/5/2 77/5/2
f 77/5/2 70/5/2 78/5/2
f 71/5/2 72/5/2 79/5/2
f 79/5/2 72/5/2 80/5/2
f 73/5/2 74/5/2 81/5/2
f 81/5/2 74/5/2 82/5/2
f 75/1/2 76/1/2 83/1/2
f 83/1/2 76/1/2 84/1/2
f 77/1/2 78/1/2 85/1/2
f 85/1/2 78/1/2 86/1/2
f 79/1/2 80/1/2 87/1/2
f 87/1/2 80/1/2 88/1/2
f 81/1/2 82/1/2 89/1/2
f 89/1/2 82/1/2 90/1/2
f 95/1/2 96/1/2 101/1/2
f 97/1/2 98/1/2 102/1/2
f 95/1/2 101/1/2 103/1/2
f 101/2/2 102/2/2 104/2/2
f 103/1/2 101/1/2 104/1/2
f 102/1/2 98/1/2 105/1/2
f 104/2/2 102/2/2 105/2/2
f 105/1/2 98/1/2 106/1/2
f 99/1/2 100/1/2 107/1/2
f 107/1/2 100/1/2 108/1/2
f 105/2/2 106/2/2 109/2/2
f 95/1/2 103/1/2 109/1/2
f 107/2/2 108/2/2 109/2/2
f 106/2/2 107/2/2 109/2/2
f 103/2/2 104/2/2 109/2/2
f 104/2/2 105/2/2 109/2/2
f 109/2/2 108/2/2 110/2/2
f 110/2/2 108/2/2 111/2/2
f 111/2/2 108/2/2 112/2/2
f 112/2/2 108/2/2 113/2/2
f 113/2/2 108/2/2 114/2/2
f 91/1/2 92/1/2 115/1/2
f 115/1/2 92/1/2 116/1/2
f 93/1/2 94/1/2 117/1/2
f 117/1/2 94/1/2 118/1/2
f 95/1/2 109/1/2 119/1/2
f 109/1/2 110/1/2 119/1/2
f 110/2/2 111/2/2 120/2/2
f 119/1/2 110/1/2 120/1/2
f 111/1/2 112/1/2 121/1/2
f 120/2/2 111/2/2 121/2/2
f 121/1/2 112/1/2 122/1/2
f 113/1/2 114/1/2 123/1/2
f 123/1/2 114/1/2 124/1/2
f 125/1/2 126/1/2 135/1/2
f 135/1/2 126/1/2 136/1/2
f 125/1/2 135/1/2 137/1/2
f 135/2/2 136/2/2 138/2/2
f 137/1/2 135/1/2 138/1/2
f 138/2/2 136/2/2 139/2/2
f 127/1/2 128/1/2 140/1/2
f 131/1/2 132/1/2 141/1/2
f 141/1/2 132/1/2 142/1/2
f 133/1/2 134/1/2 143/1/2
f 138/2/2 139/2/2 144/2/2
f 139/2/2 140/2/2 144/2/2
f 137/2/2 138/2/2 144/2/2
f 144/2/2 140/2/2 145/2/2
f 145/2/2 140/2/2 146/2/2
f 140/1/2 128/1/2 147/1/2
f 146/2/2 140/2/2 147/2/2
f 145/2/2 146/2/2 148/2/2
f 144/1/2 145/1/2 148/1/2
f 148/2/2 146/2/2 149/2/2
f 131/1/2 141/1/2 150/1/2
f 143/1/2 134/1/2 152/1/2
f 129/1/2 130/1/2 153/1/2
f 150/1/2 151/1/2 154/1/2
f 131/1/2 150/1/2 154/1/2
f 129/1/2 153/1/2 155/1/2
f 153/2/2 154/2/2 156/2/2
f 155/1/2 153/1/2 156/1/2
f 154/1/2 151/1/2 157/1/2
f 156/2/2 154/2/2 157/2/2
f 157/1/2 151/1/2 158/1/2
f 152/1/2 134/1/2 159/1/2
f 159/1/2 134/1/2 160/1/2
f 129/1/2 155/1/2 161/1/2
f 157/2/2 158/2/2 161/2/2
f 159/2/2 160/2/2 161/2/2
f 158/2/2 159/2/2 161/2/2
f 155/2/2 156/2/2 161/2/2
f 156/2/2 157/2/2 161/2/2
f 161/2/2 160/2/2 162/2/2
f 162/2/2 160/2/2 163/2/2
f 163/2/2 160/2/2 164/2/2
f 164/2/2 160/2/2 165/2/2
f 165/2/2 160/2/2 166/2/2
f 161/1/2 162/1/2 167/1/2
f 162/2/2 163/2/2 167/2/2
f 163/5/2 164/5/2 168/5/2
f 167/2/2 163/2/2 168/2/2
f 148/1/2 149/1/2 169/1/2
f 144/1/2 148/1/2 169/1/2
f 169/1/2 149/1/2 170/1/2
f 147/1/2 128/1/2 171/1/2
f 171/1/2 128/1/2 172/1/2
f 161/1/2 167/1/2 173/1/2
f 129/1/2 161/1/2 173/1/2
f 173/1/2 167/1/2 174/1/2
f 168/5/2 164/5/2 175/5/2
f 175/5/2 164/5/2 176/5/2
f 165/1/2 166/1/2 177/1/2
f 177/1/2 166/1/2 178/1/2
f 179/1/2 180/1/2 189/1/2
f 189/1/2 180/1/2 190/1/2
f 181/1/2 182/1/2 191/1/2
f 191/1/2 182/1/2 192/1/2
f 183/1/2 184/1/2 193/1/2
f 193/1/2 184/1/2 194/1/2
f 185/1/2 186/1/2 195/1/2
f 195/1/2 186/1/2 196/1/2
f 187/1/2 188/1/2 197/1/2
f 197/1/2 188/1/2 198/1/2
f 199/4/2 200/4/2 201/4/2
f 201/4/2 200/4/2 202/4/2
f 203/4/2 204/4/2 205/4/2
f 205/4/2 204/4/2 206/4/2
f 207/4/2 208/4/2 209/4/2
f 209/4/2 208/4/2 210/4/2
f 213/1/3 212/1/3 211/1/3
f 214/1/3 212/1/3 213/1/3
f 215/1/3 213/1/3 211/1/3
f 216/1/3 213/1/3 215/1/3
f 217/1/3 213/1/3 216/1/3
f 218/2/3 214/2/3 213/2/3
f 218/1/3 213/1/3 217/1/3
f 219/1/3 212/1/3 214/1/3
f 219/2/3 214/2/3 218/2/3
f 220/1/3 212/1/3 219/1/3
f 221/1/3 212/1/3 220/1/3
f 222/1/3 212/1/3 221/1/3
f 223/4/3 217/4/3 216/4/3
f 224/4/3 217/4/3 223/4/3
f 225/4/3 221/4/3 220/4/3
f 226/4/3 221/4/3 225/4/3
f 237/1/3 228/1/3 227/1/3
f 237/1/3 229/1/3 228/1/3
f 238/1/3 229/1/3 237/1/3
f 239/1/3 231/1/3 230/1/3
f 240/1/3 231/1/3 239/1/3
f 241/1/3 233/1/3 232/1/3
f 242/1/3 233/1/3 241/1/3
f 243/1/3 236/1/3 235/1/3
f 243/1/3 235/1/3 234/1/3
f 244/1/3 236/1/3 243/1/3
f 253/1/3 246/1/3 245/1/3
f 253/1/3 247/1/3 246/1/3
f 254/1/3 247/1/3 253/1/3
f 255/1/3 249/1/3 248/1/3
f 256/1/3 249/1/3 255/1/3
f 257/1/3 252/1/3 251/1/3
f 257/1/3 251/1/3 250/1/3
f 258/1/3 252/1/3 257/1/3
f 269/1/3 260/1/3 259/1/3
f 269/1/3 261/1/3 260/1/3
f 270/1/3 261/1/3 269/1/3
f 271/1/3 263/1/3 262/1/3
f 272/1/3 263/1/3 271/1/3
f 273/5/3 265/5/3 264/5/3
f 274/5/3 265/5/3 273/5/3
f 275/1/3 268/1/3 267/1/3
f 275/1/3 267/1/3 266/1/3
f 276/1/3 268/1/3 275/1/3
f 279/4/3 278/4/3 277/4/3
f 280/4/3 278/4/3 279/4/3
f 293/1/3 282/1/3 281/1/3
f 293/1/3 283/1/3 282/1/3
f 294/1/3 283/1/3 293/1/3
f 295/1/3 285/1/3 284/1/3
f 296/1/3 285/1/3 295/1/3
f 297/1/3 287/1/3 286/1/3
f 298/1/3 287/1/3 297/1/3
f 299/1/3 287/1/3 298/1/3
f 300/1/3 287/1/3 299/1/3
f 301/1/3 289/1/3 288/1/3
f 302/1/3 289/1/3 301/1/3
f 303/1/3 292/1/3 291/1/3
f 303/1/3 291/1/3 290/1/3
f 304/1/3 292/1/3 303/1/3
f 305/1/4 306/1/4 317/1/4
f 306/1/4 307/1/4 317/1/4
f 317/1/4 307/1/4 318/1/4
f 308/1/4 309/1/4 319/1/4
f 309/2/4 310/2/4 320/2/4
f 319/1/4 309/1/4 320/1/4
f 320/2/4 310/2/4 321/2/4
f 311/2/4 312/2/4 322/2/4
f 312/1/4 313/1/4 323/1/4
f 322/2/4 312/2/4 323/2/4
f 323/1/4 313/1/4 324/1/4
f 315/1/4 316/1/4 325/1/4
f 314/1/4 315/1/4 325/1/4
f 325/1/4 316/1/4 326/1/4
f 327/1/4 328/1/4 335/1/4
f 328/1/4 329/1/4 335/1/4
f 335/1/4 329/1/4 336/1/4
f 330/1/4 331/1/4 337/1/4
f 337/1/4 331/1/4 338/1/4
f 333/1/4 334/1/4 339/1/4
f 332/1/4 333/1/4 339/1/4
f 339/1/4 334/1/4 340/1/4
f 341/1/4 342/1/4 351/1/4
f 342/1/4 343/1/4 351/1/4
f 351/1/4 343/1/4 352/1/4
f 344/1/4 345/1/4 353/1/4
f 353/1/4 345/1/4 354/1/4
f 346/1/4 347/1/4 355/1/4
f 355/1/4 347/1/4 356/1/4
f 349/1/4 350/1/4 357/1/4
f 348/1/4 349/1/4 357/1/4
f 357/1/4 350/1/4 358/1/4
f 359/1/4 360/1/4 371/1/4
f 360/1/4 361/1/4 371/1/4
f 371/1/4 361/1/4 372/1/4
f 362/1/4 363/1/4 373/1/4
f 373/1/4 363/1/4 374/1/4
f 364/1/4 365/1/4 375/1/4
f 375/1/4 365/1/4 376/1/4
f 376/1/4 365/1/4 377/1/4
f 377/1/4 365/1/4 378/1/4
f 366/5/4 367/5/4 379/5/4
f 379/5/4 367/5/4 380/5/4
f 369/1/4 370/1/4 381/1/4
f 368/1/4 369/1/4 381/1/4
f 381/1/4 370/1/4 382/1/4
f 383/4/4 384/4/4 385/4/4
f 385/4/4 384/4/4 386/4/4
f 387/1/4 388/1/4 389/1/4
f 389/1/4 388/1/4 390/1/4
f 390/1/4 388/1/4 391/1/4
f 391/1/4 388/1/4 392/1/4
f 387/1/4 389/1/4 393/1/4
f 389/2/4 390/2/4 394/2/4
f 393/1/4 389/1/4 394/1/4
f 390/1/4 391/1/4 395/1/4
f 394/2/4 390/2/4 395/2/4
f 395/1/4 391/1/4 396/1/4
f 396/1/4 391/1/4 397/1/4
f 391/2/4 392/2/4 398/2/4
f 397/1/4 391/1/4 398/1/4
f 392/1/4 388/1/4 399/1/4
f 398/2/4 392/2/4 399/2/4
f 399/1/4 388/1/4 400/1/4
f 400/1/4 388/1/4 401/1/4
f 401/1/4 388/1/4 402/1/4
f 396/4/4 397/4/4 403/4/4
f 403/4/4 397/4/4 404/4/4
f 400/4/4 401/4/4 405/4/4
f 405/4/4 401/4/4 406/4/4
f 409/1/5 408/1/5 407/1/5
f 410/1/5 408/1/5 409/1/5
f 411/1/5 409/1/5 407/1/5
f 413/1/5 411/1/5 407/1/5
f 413/1/5 412/1/5 411/1/5
f 414/1/5 412/1/5 413/1/5
f 415/1/5 413/1/5 407/1/5
f 417/1/5 415/1/5 407/1/5
f 417/1/5 416/1/5 415/1/5
f 418/1/5 416/1/5 417/1/5
f 419/1/5 417/1/5 407/1/5
f 421/1/5 419/1/5 407/1/5
f 421/1/5 420/1/5 419/1/5
f 422/1/5 420/1/5 421/1/5
f 423/1/5 421/1/5 407/1/5
f 425/1/5 423/1/5 407/1/5
f 425/1/5 424/1/5 423/1/5
f 426/1/5 424/1/5 425/1/5
f 429/2/5 428/2/5 427/2/5
f 430/2/5 428/2/5 429/2/5
f 433/2/5 432/2/5 431/2/5
f 434/2/5 432/2/5 433/2/5
f 438/4/5 436/4/5 435/4/5
f 439/1/5 438/1/5 437/1/5
f 440/4/5 436/4/5 438/4/5
f 440/1/5 438/1/5 439/1/5
f 442/4/5 436/4/5 440/4/5
f 443/1/5 442/1/5 441/1/5
f 444/4/5 436/4/5 442/4/5
f 444/1/5 442/1/5 443/1/5
f 445/4/5 436/4/5 444/4/5
f 446/4/5 436/4/5 445/4/5
f 448/4/5 436/4/5 446/4/5
f 449/1/5 448/1/5 447/1/5
f 450/4/5 436/4/5 448/4/5
f 450/1/5 448/1/5 449/1/5
f 451/4/5 436/4/5 450/4/5
f 452/4/5 436/4/5 451/4/5
f 455/2/5 454/2/5 453/2/5
f 456/2/5 454/2/5 455/2/5
f 459/4/5 458/4/5 457/4/5
f 460/4/5 458/4/5 459/4/5
f 461/4/5 458/4/5 460/4/5
f 464/2/5 463/2/5 462/2/5
f 465/2/5 463/2/5 464/2/5
f 468/2/5 467/2/5 466/2/5
f 469/2/5 467/2/5 468/2/5
f 473/4/5 471/4/5 470/4/5
f 474/1/5 473/1/5 472/1/5
f 475/4/5 471/4/5 473/4/5
f 475/1/5 473/1/5 474/1/5
f 477/4/5 471/4/5 475/4/5
f 478/1/5 477/1/5 476/1/5
f 479/4/5 471/4/5 477/4/5
f 479/1/5 477/1/5 478/1/5
f 481/4/5 471/4/5 479/4/5
f 482/1/5 481/1/5 480/1/5
f 483/4/5 471/4/5 481/4/5
f 483/1/5 481/1/5 482/1/5
f 485/4/5 471/4/5 483/4/5
f 486/1/5 485/1/5 484/1/5
f 487/4/5 471/4/5 485/4/5
f 487/1/5 485/1/5 486/1/5
f 488/4/5 471/4/5 487/4/5
f 489/4/5 471/4/5 488/4/5
f 490/2/6 491/2/6 492/2/6
f 492/2/6 491/2/6 493/2/6
f 494/4/6 495/4/6 497/4/6
f 496/1/6 497/1/6 498/1/6
f 497/4/6 495/4/6 499/4/6
f 498/1/6 497/1/6 499/1/6
f 499/4/6 495/4/6 501/4/6
f 500/1/6 501/1/6 502/1/6
f 501/4/6 495/4/6 503/4/6
f 502/1/6 501/1/6 503/1/6
f 503/4/6 495/4/6 505/4/6
f 504/1/6 505/1/6 506/1/6
f 505/4/6 495/4/6 507/4/6
f 506/1/6 505/1/6 507/1/6
f 507/4/6 495/4/6 509/4/6
f 508/1/6 509/1/6 510/1/6
f 509/4/6 495/4/6 511/4/6
f 510/1/6 509/1/6 511/1/6
f 511/4/6 495/4/6 512/4/6
f 512/4/6 495/4/6 513/4/6
f 514/2/6 515/2/6 516/2/6
f 516/2/6 515/2/6 517/2/6
f 518/4/6 519/4/6 520/4/6
f 520/4/6 519/4/6 521/4/6
f 521/4/6 519/4/6 522/4/6
f 523/2/6 524/2/6 525/2/6
f 525/2/6 524/2/6 526/2/6
f 527/2/6 528/2/6 529/2/6
f 529/2/6 528/2/6 530/2/6
f 531/4/6 532/4/6 534/4/6
f 533/1/6 534/1/6 535/1/6
f 534/4/6 532/4/6 536/4/6
f 535/1/6 534/1/6 536/1/6
f 536/4/6 532/4/6 538/4/6
f 537/1/6 538/1/6 539/1/6
f 538/4/6 532/4/6 540/4/6
f 539/1/6 538/1/6 540/1/6
f 540/4/6 532/4/6 542/4/6
f 541/1/6 542/1/6 543/1/6
f 542/4/6 532/4/6 544/4/6
f 543/1/6 542/1/6 544/1/6
f 544/4/6 532/4/6 546/4/6
f 545/1/6 546/1/6 547/1/6
f 546/4/6 532/4/6 548/4/6
f 547/1/6 546/1/6 548/1/6
f 548/4/6 532/4/6 549/4/6
f 549/4/6 532/4/6 550/4/6
f 551/1/6 552/1/6 553/1/6
f 553/1/6 552/1/6 554/1/6
f 551/1/6 553/1/6 555/1/6
f 551/1/6 555/1/6 557/1/6
f 555/1/6 556/1/6 557/1/6
f 557/1/6 556/1/6 558/1/6
f 551/1/6 557/1/6 559/1/6
f 551/1/6 559/1/6 561/1/6
f 559/1/6 560/1/6 561/1/6
f 561/1/6 560/1/6 562/1/6
f 551/1/6 561/1/6 563/1/6
f 551/1/6 563/1/6 565/1/6
f 563/1/6 564/1/6 565/1/6
f 565/1/6 564/1/6 566/1/6
f 551/1/6 565/1/6 567/1/6
f 551/1/6 567/1/6 569/1/6
f 567/1/6 568/1/6 569/1/6
f 569/1/6 568/1/6 570/1/6
