# MagicaVoxel @ Ephtracy

# group
o 

# material
mtllib en_ogre.fbx-1.mtl
usemtl palette

# normals
vn -1 0 0
vn 1 0 0
vn 0 0 1
vn 0 0 -1
vn 0 -1 0
vn 0 1 0

# texcoords
vt 0.00195313 0.5
vt 0.0214844 0.5
vt 0.0332031 0.5
vt 0.0449219 0.5
vt 0.0527344 0.5
vt 0.0566406 0.5
vt 0.306641 0.5

# verts
v -0.5 0.1 0.2
v -0.5 0.1 -0.5
v -0.5 0.2 0.3
v -0.5 0.2 0.2
v -0.5 0.6 0.3
v -0.5 0.6 0.2
v -0.5 0.7 0.2
v -0.5 0.7 -0.5
v -0.4 0 0.2
v -0.4 0 -0.5
v -0.4 0.1 0.3
v -0.4 0.1 0.2
v -0.4 0.1 -0.5
v -0.4 0.1 -0.6
v -0.4 0.2 0.3
v -0.4 0.2 0.2
v -0.4 0.6 0.3
v -0.4 0.6 0.2
v -0.4 0.7 0.3
v -0.4 0.7 0.2
v -0.4 0.7 -0.5
v -0.4 0.7 -0.6
v -0.4 0.8 0.2
v -0.4 0.8 -0.5
v -0.3 0 0.3
v -0.3 0 0.2
v -0.3 0 -0.5
v -0.3 0 -0.6
v -0.3 0.1 0.3
v -0.3 0.1 0.2
v -0.3 0.1 -0.5
v -0.3 0.1 -0.6
v -0.3 0.2 0.5
v -0.3 0.2 0.4
v -0.3 0.3 0.5
v -0.3 0.3 0.4
v -0.3 0.7 0.3
v -0.3 0.7 0.2
v -0.3 0.7 -0.5
v -0.3 0.7 -0.6
v -0.3 0.8 0.3
v -0.3 0.8 0.2
v -0.3 0.8 -0.5
v -0.3 0.8 -0.6
v -0.2 0.1 0.4
v -0.2 0.1 0.3
v -0.2 0.2 0.4
v -0.2 0.2 0.3
v 0.1 0.1 0.4
v 0.1 0.1 0.3
v 0.1 0.2 0.4
v 0.1 0.2 0.3
v 0.2 0.2 0.5
v 0.2 0.2 0.4
v 0.2 0.3 0.5
v 0.2 0.3 0.4
v -0.2 0.2 0.5
v -0.2 0.2 0.4
v -0.2 0.3 0.5
v -0.2 0.3 0.4
v -0.1 0.1 0.4
v -0.1 0.1 0.3
v -0.1 0.2 0.4
v -0.1 0.2 0.3
v 0.2 0.1 0.4
v 0.2 0.1 0.3
v 0.2 0.2 0.4
v 0.2 0.2 0.3
v 0.3 0 0.3
v 0.3 0 0.2
v 0.3 0 -0.5
v 0.3 0 -0.6
v 0.3 0.1 0.3
v 0.3 0.1 0.2
v 0.3 0.1 -0.5
v 0.3 0.1 -0.6
v 0.3 0.2 0.5
v 0.3 0.2 0.4
v 0.3 0.3 0.5
v 0.3 0.3 0.4
v 0.3 0.7 0.3
v 0.3 0.7 0.2
v 0.3 0.7 -0.5
v 0.3 0.7 -0.6
v 0.3 0.8 0.3
v 0.3 0.8 0.2
v 0.3 0.8 -0.5
v 0.3 0.8 -0.6
v 0.4 0 0.2
v 0.4 0 -0.5
v 0.4 0.1 0.3
v 0.4 0.1 0.2
v 0.4 0.1 -0.5
v 0.4 0.1 -0.6
v 0.4 0.2 0.3
v 0.4 0.2 0.2
v 0.4 0.6 0.3
v 0.4 0.6 0.2
v 0.4 0.7 0.3
v 0.4 0.7 0.2
v 0.4 0.7 -0.5
v 0.4 0.7 -0.6
v 0.4 0.8 0.2
v 0.4 0.8 -0.5
v 0.5 0.1 0.2
v 0.5 0.1 -0.5
v 0.5 0.2 0.3
v 0.5 0.2 0.2
v 0.5 0.6 0.3
v 0.5 0.6 0.2
v 0.5 0.7 0.2
v 0.5 0.7 -0.5
v -0.3 0.2 0.5
v -0.3 0.3 0.5
v -0.2 0.2 0.5
v -0.2 0.3 0.5
v 0.2 0.2 0.5
v 0.2 0.3 0.5
v 0.3 0.2 0.5
v 0.3 0.3 0.5
v -0.2 0.1 0.4
v -0.2 0.2 0.4
v -0.1 0.1 0.4
v -0.1 0.2 0.4
v 0.1 0.1 0.4
v 0.1 0.2 0.4
v 0.2 0.1 0.4
v 0.2 0.2 0.4
v -0.5 0.2 0.3
v -0.5 0.6 0.3
v -0.4 0.1 0.3
v -0.4 0.2 0.3
v -0.4 0.4 0.3
v -0.4 0.6 0.3
v -0.4 0.7 0.3
v -0.3 0 0.3
v -0.3 0.1 0.3
v -0.3 0.4 0.3
v -0.3 0.6 0.3
v -0.3 0.7 0.3
v -0.3 0.8 0.3
v -0.2 0.1 0.3
v -0.2 0.2 0.3
v -0.2 0.4 0.3
v -0.2 0.5 0.3
v -0.2 0.6 0.3
v -0.2 0.7 0.3
v -0.1 0.1 0.3
v -0.1 0.2 0.3
v -0.1 0.5 0.3
v -0.1 0.6 0.3
v 0.1 0.1 0.3
v 0.1 0.2 0.3
v 0.1 0.5 0.3
v 0.1 0.6 0.3
v 0.2 0.1 0.3
v 0.2 0.2 0.3
v 0.2 0.4 0.3
v 0.2 0.5 0.3
v 0.2 0.6 0.3
v 0.2 0.7 0.3
v 0.3 0 0.3
v 0.3 0.1 0.3
v 0.3 0.4 0.3
v 0.3 0.6 0.3
v 0.3 0.7 0.3
v 0.3 0.8 0.3
v 0.4 0.1 0.3
v 0.4 0.2 0.3
v 0.4 0.4 0.3
v 0.4 0.6 0.3
v 0.4 0.7 0.3
v 0.5 0.2 0.3
v 0.5 0.6 0.3
v -0.5 0.1 0.2
v -0.5 0.2 0.2
v -0.5 0.6 0.2
v -0.5 0.7 0.2
v -0.4 0 0.2
v -0.4 0.1 0.2
v -0.4 0.2 0.2
v -0.4 0.6 0.2
v -0.4 0.7 0.2
v -0.4 0.8 0.2
v -0.3 0 0.2
v -0.3 0.1 0.2
v -0.3 0.7 0.2
v -0.3 0.8 0.2
v 0.3 0 0.2
v 0.3 0.1 0.2
v 0.3 0.7 0.2
v 0.3 0.8 0.2
v 0.4 0 0.2
v 0.4 0.1 0.2
v 0.4 0.2 0.2
v 0.4 0.6 0.2
v 0.4 0.7 0.2
v 0.4 0.8 0.2
v 0.5 0.1 0.2
v 0.5 0.2 0.2
v 0.5 0.6 0.2
v 0.5 0.7 0.2
v -0.3 0.2 0.4
v -0.3 0.3 0.4
v -0.2 0.2 0.4
v -0.2 0.3 0.4
v 0.2 0.2 0.4
v 0.2 0.3 0.4
v 0.3 0.2 0.4
v 0.3 0.3 0.4
v -0.5 0.1 -0.5
v -0.5 0.7 -0.5
v -0.4 0 -0.5
v -0.4 0.1 -0.5
v -0.4 0.7 -0.5
v -0.4 0.8 -0.5
v -0.3 0 -0.5
v -0.3 0.1 -0.5
v -0.3 0.7 -0.5
v -0.3 0.8 -0.5
v 0.3 0 -0.5
v 0.3 0.1 -0.5
v 0.3 0.7 -0.5
v 0.3 0.8 -0.5
v 0.4 0 -0.5
v 0.4 0.1 -0.5
v 0.4 0.7 -0.5
v 0.4 0.8 -0.5
v 0.5 0.1 -0.5
v 0.5 0.7 -0.5
v -0.4 0.1 -0.6
v -0.4 0.7 -0.6
v -0.3 0 -0.6
v -0.3 0.1 -0.6
v -0.3 0.7 -0.6
v -0.3 0.8 -0.6
v 0.3 0 -0.6
v 0.3 0.1 -0.6
v 0.3 0.7 -0.6
v 0.3 0.8 -0.6
v 0.4 0.1 -0.6
v 0.4 0.7 -0.6
v -0.3 0 0.3
v 0.3 0 0.3
v -0.4 0 0.2
v -0.3 0 0.2
v -0.2 0 0.2
v 0.2 0 0.2
v 0.3 0 0.2
v 0.4 0 0.2
v -0.2 0 0.1
v -0.1 0 0.1
v 0.1 0 0.1
v 0.2 0 0.1
v -0.4 0 -0.5
v -0.3 0 -0.5
v -0.1 0 -0.5
v 0.1 0 -0.5
v 0.3 0 -0.5
v 0.4 0 -0.5
v -0.3 0 -0.6
v 0.3 0 -0.6
v -0.2 0.1 0.4
v -0.1 0.1 0.4
v 0.1 0.1 0.4
v 0.2 0.1 0.4
v -0.4 0.1 0.3
v -0.3 0.1 0.3
v -0.2 0.1 0.3
v -0.1 0.1 0.3
v 0.1 0.1 0.3
v 0.2 0.1 0.3
v 0.3 0.1 0.3
v 0.4 0.1 0.3
v -0.5 0.1 0.2
v -0.4 0.1 0.2
v -0.3 0.1 0.2
v 0.3 0.1 0.2
v 0.4 0.1 0.2
v 0.5 0.1 0.2
v -0.5 0.1 -0.5
v -0.4 0.1 -0.5
v -0.3 0.1 -0.5
v 0.3 0.1 -0.5
v 0.4 0.1 -0.5
v 0.5 0.1 -0.5
v -0.4 0.1 -0.6
v -0.3 0.1 -0.6
v 0.3 0.1 -0.6
v 0.4 0.1 -0.6
v -0.3 0.2 0.5
v -0.2 0.2 0.5
v 0.2 0.2 0.5
v 0.3 0.2 0.5
v -0.3 0.2 0.4
v -0.2 0.2 0.4
v 0.2 0.2 0.4
v 0.3 0.2 0.4
v -0.5 0.2 0.3
v -0.4 0.2 0.3
v 0.4 0.2 0.3
v 0.5 0.2 0.3
v -0.5 0.2 0.2
v -0.4 0.2 0.2
v 0.4 0.2 0.2
v 0.5 0.2 0.2
v -0.2 0.2 0.4
v -0.1 0.2 0.4
v 0.1 0.2 0.4
v 0.2 0.2 0.4
v -0.2 0.2 0.3
v -0.1 0.2 0.3
v 0.1 0.2 0.3
v 0.2 0.2 0.3
v -0.3 0.3 0.5
v -0.2 0.3 0.5
v 0.2 0.3 0.5
v 0.3 0.3 0.5
v -0.3 0.3 0.4
v -0.2 0.3 0.4
v 0.2 0.3 0.4
v 0.3 0.3 0.4
v -0.5 0.6 0.3
v -0.4 0.6 0.3
v 0.4 0.6 0.3
v 0.5 0.6 0.3
v -0.5 0.6 0.2
v -0.4 0.6 0.2
v 0.4 0.6 0.2
v 0.5 0.6 0.2
v -0.4 0.7 0.3
v -0.3 0.7 0.3
v 0.3 0.7 0.3
v 0.4 0.7 0.3
v -0.5 0.7 0.2
v -0.4 0.7 0.2
v -0.3 0.7 0.2
v 0.3 0.7 0.2
v 0.4 0.7 0.2
v 0.5 0.7 0.2
v -0.5 0.7 -0.5
v -0.4 0.7 -0.5
v -0.3 0.7 -0.5
v 0.3 0.7 -0.5
v 0.4 0.7 -0.5
v 0.5 0.7 -0.5
v -0.4 0.7 -0.6
v -0.3 0.7 -0.6
v 0.3 0.7 -0.6
v 0.4 0.7 -0.6
v -0.3 0.8 0.3
v 0.3 0.8 0.3
v -0.4 0.8 0.2
v -0.3 0.8 0.2
v 0.3 0.8 0.2
v 0.4 0.8 0.2
v -0.4 0.8 -0.5
v -0.3 0.8 -0.5
v 0.3 0.8 -0.5
v 0.4 0.8 -0.5
v -0.3 0.8 -0.6
v 0.3 0.8 -0.6

# faces
f 4/1/1 2/1/1 1/1/1
f 5/1/1 4/1/1 3/1/1
f 6/1/1 2/1/1 4/1/1
f 6/1/1 4/1/1 5/1/1
f 7/1/1 2/1/1 6/1/1
f 8/1/1 2/1/1 7/1/1
f 12/1/1 10/1/1 9/1/1
f 13/1/1 10/1/1 12/1/1
f 15/1/1 12/1/1 11/1/1
f 16/1/1 12/1/1 15/1/1
f 19/4/1 18/4/1 17/4/1
f 20/4/1 18/4/1 19/4/1
f 21/1/1 14/1/1 13/1/1
f 22/1/1 14/1/1 21/1/1
f 23/1/1 21/1/1 20/1/1
f 24/1/1 21/1/1 23/1/1
f 29/1/1 26/1/1 25/1/1
f 30/1/1 26/1/1 29/1/1
f 31/1/1 28/1/1 27/1/1
f 32/1/1 28/1/1 31/1/1
f 35/4/1 34/4/1 33/4/1
f 36/4/1 34/4/1 35/4/1
f 41/1/1 38/1/1 37/1/1
f 42/1/1 38/1/1 41/1/1
f 43/1/1 40/1/1 39/1/1
f 44/1/1 40/1/1 43/1/1
f 47/4/1 46/4/1 45/4/1
f 48/4/1 46/4/1 47/4/1
f 51/4/1 50/4/1 49/4/1
f 52/4/1 50/4/1 51/4/1
f 55/4/1 54/4/1 53/4/1
f 56/4/1 54/4/1 55/4/1
f 57/4/2 58/4/2 59/4/2
f 59/4/2 58/4/2 60/4/2
f 61/4/2 62/4/2 63/4/2
f 63/4/2 62/4/2 64/4/2
f 65/4/2 66/4/2 67/4/2
f 67/4/2 66/4/2 68/4/2
f 69/1/2 70/1/2 73/1/2
f 73/1/2 70/1/2 74/1/2
f 71/1/2 72/1/2 75/1/2
f 75/1/2 72/1/2 76/1/2
f 77/4/2 78/4/2 79/4/2
f 79/4/2 78/4/2 80/4/2
f 81/1/2 82/1/2 85/1/2
f 85/1/2 82/1/2 86/1/2
f 83/1/2 84/1/2 87/1/2
f 87/1/2 84/1/2 88/1/2
f 89/1/2 90/1/2 92/1/2
f 92/1/2 90/1/2 93/1/2
f 91/1/2 92/1/2 95/1/2
f 95/1/2 92/1/2 96/1/2
f 97/4/2 98/4/2 99/4/2
f 99/4/2 98/4/2 100/4/2
f 93/1/2 94/1/2 101/1/2
f 101/1/2 94/1/2 102/1/2
f 100/1/2 101/1/2 103/1/2
f 103/1/2 101/1/2 104/1/2
f 105/1/2 106/1/2 108/1/2
f 107/1/2 108/1/2 109/1/2
f 108/1/2 106/1/2 110/1/2
f 109/1/2 108/1/2 110/1/2
f 110/1/2 106/1/2 111/1/2
f 111/1/2 106/1/2 112/1/2
f 115/4/3 114/4/3 113/4/3
f 116/4/3 114/4/3 115/4/3
f 119/4/3 118/4/3 117/4/3
f 120/4/3 118/4/3 119/4/3
f 123/4/3 122/4/3 121/4/3
f 124/4/3 122/4/3 123/4/3
f 127/4/3 126/4/3 125/4/3
f 128/4/3 126/4/3 127/4/3
f 132/1/3 130/1/3 129/1/3
f 133/1/3 130/1/3 132/1/3
f 134/1/3 130/1/3 133/1/3
f 137/1/3 132/1/3 131/1/3
f 137/1/3 133/1/3 132/1/3
f 138/6/3 134/6/3 133/6/3
f 138/1/3 133/1/3 137/1/3
f 139/4/3 135/4/3 134/4/3
f 139/6/3 134/6/3 138/6/3
f 140/4/3 135/4/3 139/4/3
f 142/1/3 138/1/3 137/1/3
f 142/1/3 137/1/3 136/1/3
f 143/1/3 138/1/3 142/1/3
f 144/2/3 139/2/3 138/2/3
f 144/1/3 138/1/3 143/1/3
f 145/2/3 139/2/3 144/2/3
f 146/4/3 140/4/3 139/4/3
f 146/2/3 139/2/3 145/2/3
f 147/1/3 141/1/3 140/1/3
f 147/4/3 140/4/3 146/4/3
f 148/1/3 142/1/3 136/1/3
f 149/1/3 145/1/3 144/1/3
f 149/1/3 144/1/3 143/1/3
f 150/4/3 146/4/3 145/4/3
f 150/1/3 145/1/3 149/1/3
f 151/1/3 147/1/3 146/1/3
f 151/4/3 146/4/3 150/4/3
f 152/3/3 149/3/3 148/3/3
f 152/1/3 148/1/3 136/1/3
f 153/1/3 151/1/3 150/1/3
f 153/3/3 149/3/3 152/3/3
f 153/1/3 150/1/3 149/1/3
f 154/1/3 151/1/3 153/1/3
f 155/1/3 147/1/3 151/1/3
f 155/1/3 151/1/3 154/1/3
f 156/1/3 152/1/3 136/1/3
f 157/1/3 154/1/3 153/1/3
f 158/1/3 154/1/3 157/1/3
f 159/4/3 155/4/3 154/4/3
f 159/1/3 154/1/3 158/1/3
f 160/1/3 147/1/3 155/1/3
f 160/4/3 155/4/3 159/4/3
f 161/1/3 141/1/3 147/1/3
f 161/1/3 147/1/3 160/1/3
f 162/1/3 156/1/3 136/1/3
f 162/1/3 158/1/3 157/1/3
f 162/1/3 157/1/3 156/1/3
f 163/1/3 158/1/3 162/1/3
f 164/2/3 159/2/3 158/2/3
f 164/1/3 158/1/3 163/1/3
f 164/2/3 160/2/3 159/2/3
f 165/4/3 161/4/3 160/4/3
f 165/2/3 160/2/3 164/2/3
f 166/1/3 141/1/3 161/1/3
f 166/4/3 161/4/3 165/4/3
f 167/1/3 141/1/3 166/1/3
f 168/1/3 164/1/3 163/1/3
f 169/1/3 164/1/3 168/1/3
f 170/6/3 165/6/3 164/6/3
f 170/1/3 164/1/3 169/1/3
f 171/4/3 166/4/3 165/4/3
f 171/6/3 165/6/3 170/6/3
f 172/4/3 166/4/3 171/4/3
f 173/1/3 170/1/3 169/1/3
f 173/1/3 171/1/3 170/1/3
f 174/1/3 171/1/3 173/1/3
f 180/1/3 176/1/3 175/1/3
f 181/1/3 176/1/3 180/1/3
f 182/1/3 178/1/3 177/1/3
f 183/1/3 178/1/3 182/1/3
f 185/1/3 180/1/3 179/1/3
f 186/1/3 180/1/3 185/1/3
f 187/1/3 184/1/3 183/1/3
f 188/1/3 184/1/3 187/1/3
f 193/1/3 190/1/3 189/1/3
f 194/1/3 190/1/3 193/1/3
f 197/1/3 192/1/3 191/1/3
f 198/1/3 192/1/3 197/1/3
f 199/1/3 195/1/3 194/1/3
f 200/1/3 195/1/3 199/1/3
f 201/1/3 197/1/3 196/1/3
f 202/1/3 197/1/3 201/1/3
f 203/4/4 204/4/4 205/4/4
f 205/4/4 204/4/4 206/4/4
f 207/4/4 208/4/4 209/4/4
f 209/4/4 208/4/4 210/4/4
f 211/1/4 212/1/4 214/1/4
f 214/1/4 212/1/4 215/1/4
f 213/1/4 214/1/4 217/1/4
f 217/1/4 214/1/4 218/1/4
f 215/1/4 216/1/4 219/1/4
f 219/1/4 216/1/4 220/1/4
f 221/1/4 222/1/4 225/1/4
f 225/1/4 222/1/4 226/1/4
f 223/1/4 224/1/4 227/1/4
f 227/1/4 224/1/4 228/1/4
f 226/1/4 227/1/4 229/1/4
f 229/1/4 227/1/4 230/1/4
f 231/1/4 232/1/4 234/1/4
f 234/1/4 232/1/4 235/1/4
f 233/1/4 234/1/4 237/1/4
f 235/1/4 236/1/4 237/1/4
f 234/1/4 235/1/4 237/1/4
f 237/1/4 236/1/4 238/1/4
f 238/1/4 236/1/4 239/1/4
f 239/1/4 236/1/4 240/1/4
f 238/1/4 239/1/4 241/1/4
f 241/1/4 239/1/4 242/1/4
f 246/1/5 244/1/5 243/1/5
f 247/1/5 244/1/5 246/1/5
f 248/1/5 244/1/5 247/1/5
f 249/1/5 244/1/5 248/1/5
f 251/7/5 247/7/5 246/7/5
f 251/1/5 248/1/5 247/1/5
f 252/1/5 248/1/5 251/1/5
f 253/1/5 248/1/5 252/1/5
f 254/7/5 249/7/5 248/7/5
f 254/1/5 248/1/5 253/1/5
f 255/1/5 246/1/5 245/1/5
f 256/7/5 251/7/5 246/7/5
f 256/1/5 246/1/5 255/1/5
f 256/7/5 252/7/5 251/7/5
f 257/3/5 253/3/5 252/3/5
f 257/7/5 252/7/5 256/7/5
f 258/7/5 254/7/5 253/7/5
f 258/3/5 253/3/5 257/3/5
f 259/7/5 249/7/5 254/7/5
f 259/7/5 254/7/5 258/7/5
f 259/1/5 250/1/5 249/1/5
f 260/1/5 250/1/5 259/1/5
f 261/1/5 258/1/5 257/1/5
f 261/1/5 257/1/5 256/1/5
f 261/1/5 259/1/5 258/1/5
f 262/1/5 259/1/5 261/1/5
f 269/4/5 264/4/5 263/4/5
f 270/4/5 264/4/5 269/4/5
f 271/4/5 266/4/5 265/4/5
f 272/4/5 266/4/5 271/4/5
f 276/1/5 268/1/5 267/1/5
f 277/1/5 268/1/5 276/1/5
f 278/1/5 274/1/5 273/1/5
f 279/1/5 274/1/5 278/1/5
f 281/1/5 276/1/5 275/1/5
f 282/1/5 276/1/5 281/1/5
f 285/1/5 280/1/5 279/1/5
f 286/1/5 280/1/5 285/1/5
f 287/1/5 283/1/5 282/1/5
f 288/1/5 283/1/5 287/1/5
f 289/1/5 285/1/5 284/1/5
f 290/1/5 285/1/5 289/1/5
f 295/4/5 292/4/5 291/4/5
f 296/4/5 292/4/5 295/4/5
f 297/4/5 294/4/5 293/4/5
f 298/4/5 294/4/5 297/4/5
f 303/1/5 300/1/5 299/1/5
f 304/1/5 300/1/5 303/1/5
f 305/1/5 302/1/5 301/1/5
f 306/1/5 302/1/5 305/1/5
f 307/4/6 308/4/6 311/4/6
f 311/4/6 308/4/6 312/4/6
f 309/4/6 310/4/6 313/4/6
f 313/4/6 310/4/6 314/4/6
f 315/4/6 316/4/6 319/4/6
f 319/4/6 316/4/6 320/4/6
f 317/4/6 318/4/6 321/4/6
f 321/4/6 318/4/6 322/4/6
f 323/1/6 324/1/6 327/1/6
f 327/1/6 324/1/6 328/1/6
f 325/1/6 326/1/6 329/1/6
f 329/1/6 326/1/6 330/1/6
f 331/4/6 332/4/6 336/4/6
f 336/4/6 332/4/6 337/4/6
f 333/4/6 334/4/6 338/4/6
f 338/4/6 334/4/6 339/4/6
f 335/1/6 336/1/6 341/1/6
f 341/1/6 336/1/6 342/1/6
f 339/1/6 340/1/6 345/1/6
f 345/1/6 340/1/6 346/1/6
f 342/1/6 343/1/6 347/1/6
f 347/1/6 343/1/6 348/1/6
f 344/1/6 345/1/6 349/1/6
f 349/1/6 345/1/6 350/1/6
f 351/1/6 352/1/6 354/1/6
f 354/1/6 352/1/6 355/1/6
f 353/1/6 354/1/6 357/1/6
f 355/1/6 356/1/6 357/1/6
f 354/1/6 355/1/6 357/1/6
f 357/1/6 356/1/6 358/1/6
f 358/1/6 356/1/6 359/1/6
f 359/1/6 356/1/6 360/1/6
f 358/1/6 359/1/6 361/1/6
f 361/1/6 359/1/6 362/1/6
